# xmcd
#
# Track frame offsets:
#	150
#	9770
#	19287
#	24182
#	32130
#	41657
#	46767
#	51965
#	60765
#	67687
#	75272
#	93797
#	108397
#	122592
#	134570
#	152730
#
# Disc length: 2154 seconds
#
# Revision: 1
# Processed by: cddbd v1.5.2PL0 Copyright (c) Steve Scherf et al.
# Submitted via: audiograbber 1.83.01
#
DISCID=b0086810
DTITLE=яелпетийа йаи казйа [1994] CD2 - MINOS EMI
DYEAR=1900
DGENRE=
TTITLE0=йаьоуягс
TTITLE1=бадифы йаи паяаликы
TTITLE2=о лпоужетфгс
TTITLE3=акенамдяимг жекава
TTITLE4=емас акгтгс пехаме
TTITLE5=лас фгкеуоуме
TTITLE6=жеяе лас йапека йяаси
TTITLE7=са лацелемо то луако лоу
TTITLE8=г мувтеяида
TTITLE9=фоуса ломавос выяис ацапг
TTITLE10=елаха пыс еисаи лацйас
TTITLE11=жеуцы цеиа соу
TTITLE12=олояжг пеияаиытисса
TTITLE13=г цата
TTITLE14=ха сактаяы ха сактаяы
TTITLE15=еиласте акамиа
EXTD=
EXTT0=
EXTT1=
EXTT2=
EXTT3=
EXTT4=
EXTT5=
EXTT6=
EXTT7=
EXTT8=
EXTT9=
EXTT10=
EXTT11=
EXTT12=
EXTT13=
EXTT14=
EXTT15=
PLAYORDER=
